# xmcd
#
# Track frame offsets: 
#        150
#        12911
#        29596
#        41283
#        60469
#        82458
#        89193
#        103300
#        115955
#        128220
#        141120
#        155634
#        167905
#        177893
#        192275
#        205322
#        215761
#        229295
#        241742
#        252864
#        263773
#
# Disc length: 3884 seconds
#
# Revision: 0
# Processed by: cddbd v1.5.2PL0 Copyright (c) Steve Scherf et al.
# Submitted via: ExactAudioCopy v0.99pb4
#
DISCID=3a0f2a15
DTITLE=Katastroof - Drijendaertigers
DYEAR=2010
DGENRE=Folk
TTITLE0=Morge Blijf Ek Thuis
TTITLE1=Penislied
TTITLE2=Wijvezot
TTITLE3=Waaroem Gon Vrouwen...
TTITLE4=Is Dees Et ?
TTITLE5=As Ge Zat Zeh
TTITLE6=Viva Viagra
TTITLE7=De Hel
TTITLE8=Boemmerskonte
TTITLE9=De Kempe
TTITLE10=De Maskes Van De Kempe
TTITLE11=Tzuid
TTITLE12=Demagogie
TTITLE13=Genaaid
TTITLE14=Nul Komma Drijendaertig
TTITLE15=De Slurfe
TTITLE16=Comazuipe
TTITLE17=Iêntshen Is Giêntshe
TTITLE18=Braending
TTITLE19=Vrijgezellig
TTITLE20=Muzikaent
EXTD=
EXTT0=
EXTT1=
EXTT2=
EXTT3=
EXTT4=
EXTT5=
EXTT6=
EXTT7=
EXTT8=
EXTT9=
EXTT10=
EXTT11=
EXTT12=
EXTT13=
EXTT14=
EXTT15=
EXTT16=
EXTT17=
EXTT18=
EXTT19=
EXTT20=
PLAYORDER=
